<svg xmlns="http://www.w3.org/2000/svg" xmlns:xlink="http://www.w3.org/1999/xlink" width="500" zoomAndPan="magnify" viewBox="0 0 375 112.499997" height="150" preserveAspectRatio="xMidYMid meet" version="1.0"><defs><g/><clipPath id="160f08a04f"><path d="M 332.089844 42.707031 L 373.90625 42.707031 L 373.90625 86.011719 L 332.089844 86.011719 Z M 332.089844 42.707031 " clip-rule="nonzero"/></clipPath><clipPath id="ce61da549e"><path d="M 23.671875 14.816406 L 93.4375 14.816406 L 93.4375 86.902344 L 23.671875 86.902344 Z M 23.671875 14.816406 " clip-rule="nonzero"/></clipPath><clipPath id="c47f3031c3"><path d="M 1 15.03125 L 95.769531 15.03125 L 95.769531 86.921875 L 1 86.921875 Z M 1 15.03125 " clip-rule="nonzero"/></clipPath></defs><g fill="#ffffff" fill-opacity="1"><g transform="translate(96.161641, 85.934205)"><g><path d="M 20.109375 0.609375 C 16.890625 0.609375 13.726562 0.0546875 10.625 -1.046875 C 7.53125 -2.160156 4.710938 -3.863281 2.171875 -6.15625 L 7.671875 -12.734375 C 9.597656 -11.171875 11.578125 -9.925781 13.609375 -9 C 15.640625 -8.070312 17.863281 -7.609375 20.28125 -7.609375 C 22.21875 -7.609375 23.71875 -7.957031 24.78125 -8.65625 C 25.851562 -9.363281 26.390625 -10.34375 26.390625 -11.59375 L 26.390625 -11.71875 C 26.390625 -12.320312 26.273438 -12.851562 26.046875 -13.3125 C 25.828125 -13.769531 25.40625 -14.203125 24.78125 -14.609375 C 24.15625 -15.015625 23.289062 -15.414062 22.1875 -15.8125 C 21.082031 -16.21875 19.644531 -16.644531 17.875 -17.09375 C 15.738281 -17.613281 13.804688 -18.191406 12.078125 -18.828125 C 10.347656 -19.472656 8.878906 -20.269531 7.671875 -21.21875 C 6.460938 -22.164062 5.523438 -23.34375 4.859375 -24.75 C 4.191406 -26.15625 3.859375 -27.90625 3.859375 -30 L 3.859375 -30.125 C 3.859375 -32.0625 4.21875 -33.800781 4.9375 -35.34375 C 5.664062 -36.894531 6.6875 -38.234375 8 -39.359375 C 9.3125 -40.492188 10.867188 -41.359375 12.671875 -41.953125 C 14.484375 -42.554688 16.476562 -42.859375 18.65625 -42.859375 C 21.757812 -42.859375 24.609375 -42.394531 27.203125 -41.46875 C 29.796875 -40.550781 32.179688 -39.226562 34.359375 -37.5 L 29.515625 -30.484375 C 27.628906 -31.773438 25.78125 -32.789062 23.96875 -33.53125 C 22.15625 -34.28125 20.34375 -34.65625 18.53125 -34.65625 C 16.71875 -34.65625 15.359375 -34.300781 14.453125 -33.59375 C 13.546875 -32.894531 13.09375 -32.019531 13.09375 -30.96875 L 13.09375 -30.859375 C 13.09375 -30.171875 13.222656 -29.570312 13.484375 -29.0625 C 13.753906 -28.5625 14.226562 -28.109375 14.90625 -27.703125 C 15.59375 -27.304688 16.53125 -26.925781 17.71875 -26.5625 C 18.90625 -26.195312 20.40625 -25.773438 22.21875 -25.296875 C 24.351562 -24.734375 26.253906 -24.097656 27.921875 -23.390625 C 29.585938 -22.691406 30.992188 -21.847656 32.140625 -20.859375 C 33.296875 -19.867188 34.164062 -18.707031 34.75 -17.375 C 35.332031 -16.050781 35.625 -14.46875 35.625 -12.625 L 35.625 -12.5 C 35.625 -10.40625 35.238281 -8.539062 34.46875 -6.90625 C 33.707031 -5.28125 32.640625 -3.910156 31.265625 -2.796875 C 29.898438 -1.691406 28.269531 -0.847656 26.375 -0.265625 C 24.488281 0.316406 22.398438 0.609375 20.109375 0.609375 Z M 20.109375 0.609375 "/></g></g></g><g fill="#ffffff" fill-opacity="1"><g transform="translate(134.794905, 85.934205)"><g><path d="M 24.875 0.71875 C 21.769531 0.71875 18.890625 0.15625 16.234375 -0.96875 C 13.578125 -2.09375 11.28125 -3.628906 9.34375 -5.578125 C 7.414062 -7.535156 5.910156 -9.84375 4.828125 -12.5 C 3.742188 -15.15625 3.203125 -17.992188 3.203125 -21.015625 L 3.203125 -21.125 C 3.203125 -24.144531 3.742188 -26.972656 4.828125 -29.609375 C 5.910156 -32.242188 7.414062 -34.554688 9.34375 -36.546875 C 11.28125 -38.546875 13.597656 -40.117188 16.296875 -41.265625 C 18.992188 -42.410156 21.972656 -42.984375 25.234375 -42.984375 C 27.203125 -42.984375 29 -42.820312 30.625 -42.5 C 32.257812 -42.175781 33.738281 -41.734375 35.0625 -41.171875 C 36.394531 -40.609375 37.625 -39.925781 38.75 -39.125 C 39.882812 -38.320312 40.9375 -37.4375 41.90625 -36.46875 L 35.984375 -29.640625 C 34.335938 -31.128906 32.65625 -32.296875 30.9375 -33.140625 C 29.226562 -33.984375 27.304688 -34.40625 25.171875 -34.40625 C 23.398438 -34.40625 21.757812 -34.0625 20.25 -33.375 C 18.738281 -32.695312 17.441406 -31.753906 16.359375 -30.546875 C 15.273438 -29.335938 14.429688 -27.9375 13.828125 -26.34375 C 13.222656 -24.757812 12.921875 -23.0625 12.921875 -21.25 L 12.921875 -21.125 C 12.921875 -19.320312 13.222656 -17.613281 13.828125 -16 C 14.429688 -14.382812 15.265625 -12.972656 16.328125 -11.765625 C 17.398438 -10.566406 18.6875 -9.613281 20.1875 -8.90625 C 21.695312 -8.195312 23.359375 -7.84375 25.171875 -7.84375 C 27.585938 -7.84375 29.628906 -8.285156 31.296875 -9.171875 C 32.972656 -10.054688 34.632812 -11.265625 36.28125 -12.796875 L 42.203125 -6.828125 C 41.117188 -5.660156 39.988281 -4.613281 38.8125 -3.6875 C 37.644531 -2.757812 36.367188 -1.960938 34.984375 -1.296875 C 33.597656 -0.628906 32.078125 -0.128906 30.421875 0.203125 C 28.773438 0.546875 26.925781 0.71875 24.875 0.71875 Z M 24.875 0.71875 "/></g></g></g><g fill="#ffffff" fill-opacity="1"><g transform="translate(179.343889, 85.934205)"><g><path d="M 5.078125 -42.265625 L 36.953125 -42.265625 L 36.953125 -33.984375 L 14.3125 -33.984375 L 14.3125 -25.421875 L 34.234375 -25.421875 L 34.234375 -17.140625 L 14.3125 -17.140625 L 14.3125 -8.265625 L 37.25 -8.265625 L 37.25 0 L 5.078125 0 Z M 5.078125 -42.265625 "/></g></g></g><g fill="#ffffff" fill-opacity="1"><g transform="translate(219.788085, 85.934205)"><g><path d="M 5.078125 -42.265625 L 13.640625 -42.265625 L 33.453125 -16.234375 L 33.453125 -42.265625 L 42.625 -42.265625 L 42.625 0 L 34.71875 0 L 14.25 -26.859375 L 14.25 0 L 5.078125 0 Z M 5.078125 -42.265625 "/></g></g></g><g fill="#ffffff" fill-opacity="1"><g transform="translate(267.476022, 85.934205)"><g><path d="M 3.796875 -7.0625 L 27.046875 -34.109375 L 4.53125 -34.109375 L 4.53125 -42.265625 L 39 -42.265625 L 39 -35.203125 L 15.765625 -8.15625 L 39 -8.15625 L 39 0 L 3.796875 0 Z M 3.796875 -7.0625 "/></g></g></g><g fill="#ddac63" fill-opacity="1"><g transform="translate(310.214191, 85.934205)"><g><path d="M 5.5 -42.265625 L 14.796875 -42.265625 L 14.796875 0 L 5.5 0 Z M 5.5 -42.265625 "/></g></g></g><g clip-path="url(#160f08a04f)"><path fill="#ddac63" d="M 342.769531 56.828125 L 332.347656 84.738281 C 332.09375 85.417969 332.59375 86.140625 333.320312 86.140625 L 342.1875 86.140625 C 342.628906 86.140625 343.019531 85.863281 343.167969 85.449219 L 345.644531 78.441406 L 348.640625 69.464844 C 348.710938 69.253906 348.710938 69.023438 348.640625 68.8125 L 344.734375 56.867188 C 344.425781 55.933594 343.113281 55.90625 342.769531 56.828125 Z M 357.492188 42.703125 L 349.582031 42.703125 C 348.867188 42.703125 348.363281 43.410156 348.597656 44.085938 L 353.039062 56.890625 L 353.046875 56.875 L 360.335938 78.441406 L 362.863281 85.457031 C 363.011719 85.867188 363.402344 86.140625 363.839844 86.140625 L 372.929688 86.140625 C 373.652344 86.140625 374.15625 85.417969 373.902344 84.738281 L 358.464844 43.382812 C 358.3125 42.976562 357.925781 42.703125 357.492188 42.703125 " fill-opacity="1" fill-rule="nonzero"/></g><g clip-path="url(#ce61da549e)"><path fill="#ffffff" d="M 41.328125 38.25 L 23.96875 84.566406 C 23.546875 85.695312 24.382812 86.894531 25.589844 86.894531 L 40.355469 86.894531 C 41.089844 86.894531 41.746094 86.433594 41.988281 85.746094 L 46.113281 74.117188 L 51.101562 59.21875 C 51.21875 58.871094 51.21875 58.488281 51.105469 58.136719 L 44.597656 38.316406 C 44.085938 36.765625 41.902344 36.722656 41.328125 38.25 Z M 65.839844 14.816406 L 52.667969 14.816406 C 51.476562 14.816406 50.640625 15.988281 51.03125 17.105469 L 58.429688 38.359375 L 58.441406 38.328125 L 70.578125 74.117188 L 74.785156 85.757812 C 75.03125 86.4375 75.683594 86.894531 76.414062 86.894531 L 91.546875 86.894531 C 92.753906 86.894531 93.59375 85.695312 93.171875 84.566406 L 67.464844 15.9375 C 67.210938 15.265625 66.5625 14.816406 65.839844 14.816406 " fill-opacity="1" fill-rule="nonzero"/></g><g clip-path="url(#c47f3031c3)"><path fill="#ddac63" d="M 63.742188 15.03125 C 63.742188 15.03125 42.25 15.441406 42.863281 21.152344 C 43.476562 26.863281 84.621094 33.1875 80.117188 40.324219 C 75.617188 47.464844 0.902344 51.769531 1.105469 86.945312 L 54.546875 86.945312 C 54.546875 86.945312 48.390625 68.066406 62.71875 58.886719 C 77.046875 49.707031 103.453125 44.8125 93.421875 36.042969 C 83.394531 27.269531 47.226562 24.800781 47.367188 20.539062 C 47.480469 17.1875 63.742188 15.03125 63.742188 15.03125 Z M 63.742188 15.03125 " fill-opacity="1" fill-rule="nonzero"/></g></svg>